<svg xmlns="http://www.w3.org/2000/svg" viewBox="-10 -14 260 216" role="img" aria-label="Assisted pull-up"><g stroke-linecap="round"><rect x="0" y="186" width="240" height="11" rx="5.5" fill="#CDE3D2"/><rect x="40" y="16" width="6" height="170" rx="2" fill="#E6DCD0"/><rect x="194" y="16" width="6" height="170" rx="2" fill="#E6DCD0"/><line x1="40" y1="16" x2="200" y2="16" stroke="#D3C6B8" stroke-width="6"/><rect x="54" y="100" width="7" height="50" rx="4" fill="#D3C6B8"/><rect x="54" y="150" width="46" height="7" rx="4" fill="#E6DCD0"/><rect x="56" y="156" width="5" height="30" rx="2" fill="#D3C6B8"/><rect x="94" y="156" width="5" height="30" rx="2" fill="#D3C6B8"/><line x1="112.9" y1="75.3" x2="119.2" y2="45.9" stroke="#BFB0E4" stroke-width="13"/><line x1="119.2" y1="45.9" x2="121" y2="18" stroke="#BFB0E4" stroke-width="12"/><line x1="118" y1="124" x2="114.2" y2="165.8" stroke="#BFB0E4" stroke-width="14"/><line x1="114.2" y1="165.8" x2="80" y2="145" stroke="#BFB0E4" stroke-width="13"/><line x1="80" y1="145" x2="94.7" y2="147.9" stroke="#BFB0E4" stroke-width="10"/><line x1="118" y1="124" x2="112.4" y2="70.3" stroke="#5A4A8E" stroke-width="21"/><circle cx="110.3" cy="50.4" r="13" fill="#F4B593"/><line x1="118" y1="124" x2="118" y2="166" stroke="#5A4A8E" stroke-width="14"/><line x1="118" y1="166" x2="84" y2="145" stroke="#5A4A8E" stroke-width="13"/><line x1="84" y1="145" x2="98.7" y2="147.9" stroke="#5A4A8E" stroke-width="10"/><line x1="112.9" y1="75.3" x2="119.1" y2="45.9" stroke="#5A4A8E" stroke-width="13"/><line x1="119.1" y1="45.9" x2="123.9" y2="18.3" stroke="#5A4A8E" stroke-width="12"/></g></svg>