<svg xmlns="http://www.w3.org/2000/svg" viewBox="-10 -14 260 216" role="img" aria-label="Seated band chest press"><g stroke-linecap="round"><rect x="0" y="186" width="240" height="11" rx="5.5" fill="#CDE3D2"/><rect x="66" y="90" width="7" height="50" rx="4" fill="#D3C6B8"/><rect x="66" y="140" width="46" height="7" rx="4" fill="#E6DCD0"/><rect x="68" y="146" width="5" height="40" rx="2" fill="#D3C6B8"/><rect x="106" y="146" width="5" height="40" rx="2" fill="#D3C6B8"/><line x1="99.4" y1="83.1" x2="95.6" y2="112.9" stroke="#BFB0E4" stroke-width="13"/><line x1="95.6" y1="112.9" x2="110" y2="88.9" stroke="#BFB0E4" stroke-width="12"/><line x1="96" y1="132" x2="136.9" y2="141.6" stroke="#BFB0E4" stroke-width="14"/><line x1="136.9" y1="141.6" x2="130" y2="181" stroke="#BFB0E4" stroke-width="13"/><line x1="130" y1="181" x2="144.7" y2="183.9" stroke="#BFB0E4" stroke-width="10"/><line x1="96" y1="132" x2="99.8" y2="78.1" stroke="#5A4A8E" stroke-width="21"/><circle cx="101.2" cy="58.2" r="13" fill="#F4B593"/><line x1="96" y1="132" x2="137" y2="141.1" stroke="#5A4A8E" stroke-width="14"/><line x1="137" y1="141.1" x2="134" y2="181" stroke="#5A4A8E" stroke-width="13"/><line x1="134" y1="181" x2="148.7" y2="183.9" stroke="#5A4A8E" stroke-width="10"/><line x1="99.4" y1="83.1" x2="98.7" y2="113.1" stroke="#5A4A8E" stroke-width="13"/><line x1="98.7" y1="113.1" x2="113" y2="89.1" stroke="#5A4A8E" stroke-width="12"/><line x1="64" y1="96" x2="113" y2="89.1" stroke="#E0A13C" stroke-width="3"/><line x1="64" y1="96" x2="110" y2="88.9" stroke="#E0A13C" stroke-width="3"/></g></svg>