<svg xmlns="http://www.w3.org/2000/svg" viewBox="-10 -14 260 216" role="img" aria-label="Seated band press-out"><g stroke-linecap="round"><rect x="0" y="186" width="240" height="11" rx="5.5" fill="#CDE3D2"/><rect x="66" y="90" width="7" height="50" rx="4" fill="#D3C6B8"/><rect x="66" y="140" width="46" height="7" rx="4" fill="#E6DCD0"/><rect x="68" y="146" width="5" height="40" rx="2" fill="#D3C6B8"/><rect x="106" y="146" width="5" height="40" rx="2" fill="#D3C6B8"/><circle cx="26" cy="112" r="4" fill="#D3C6B8"/><line x1="96" y1="83" x2="94.3" y2="113" stroke="#BFB0E4" stroke-width="13"/><line x1="94.3" y1="113" x2="107" y2="88" stroke="#BFB0E4" stroke-width="12"/><line x1="96" y1="132" x2="136.9" y2="141.6" stroke="#BFB0E4" stroke-width="14"/><line x1="136.9" y1="141.6" x2="130" y2="181" stroke="#BFB0E4" stroke-width="13"/><line x1="130" y1="181" x2="144.7" y2="183.9" stroke="#BFB0E4" stroke-width="10"/><line x1="96" y1="132" x2="96" y2="78" stroke="#5A4A8E" stroke-width="21"/><circle cx="96" cy="58" r="13" fill="#F4B593"/><line x1="96" y1="132" x2="137" y2="141.1" stroke="#5A4A8E" stroke-width="14"/><line x1="137" y1="141.1" x2="134" y2="181" stroke="#5A4A8E" stroke-width="13"/><line x1="134" y1="181" x2="148.7" y2="183.9" stroke="#5A4A8E" stroke-width="10"/><line x1="96" y1="83" x2="97.3" y2="113" stroke="#5A4A8E" stroke-width="13"/><line x1="97.3" y1="113" x2="110" y2="88" stroke="#5A4A8E" stroke-width="12"/><line x1="26" y1="112" x2="110" y2="88" stroke="#E0A13C" stroke-width="3"/><line x1="26" y1="112" x2="107" y2="88" stroke="#E0A13C" stroke-width="3"/></g></svg>