<svg xmlns="http://www.w3.org/2000/svg" viewBox="-10 -14 260 216" role="img" aria-label="Pallof press"><g stroke-linecap="round"><rect x="0" y="186" width="240" height="11" rx="5.5" fill="#CDE3D2"/><circle cx="22" cy="96" r="4" fill="#D3C6B8"/><line x1="110" y1="54" x2="108.3" y2="84" stroke="#BFB0E4" stroke-width="13"/><line x1="108.3" y1="84" x2="121" y2="59" stroke="#BFB0E4" stroke-width="12"/><line x1="110" y1="103" x2="121.6" y2="143.4" stroke="#BFB0E4" stroke-width="14"/><line x1="121.6" y1="143.4" x2="108" y2="181" stroke="#BFB0E4" stroke-width="13"/><line x1="108" y1="181" x2="122.7" y2="183.9" stroke="#BFB0E4" stroke-width="10"/><line x1="110" y1="103" x2="110" y2="49" stroke="#5A4A8E" stroke-width="21"/><circle cx="110" cy="29" r="13" fill="#F4B593"/><line x1="110" y1="103" x2="125.3" y2="142.1" stroke="#5A4A8E" stroke-width="14"/><line x1="125.3" y1="142.1" x2="116" y2="181" stroke="#5A4A8E" stroke-width="13"/><line x1="116" y1="181" x2="130.7" y2="183.9" stroke="#5A4A8E" stroke-width="10"/><line x1="110" y1="54" x2="111.3" y2="84" stroke="#5A4A8E" stroke-width="13"/><line x1="111.3" y1="84" x2="124" y2="59" stroke="#5A4A8E" stroke-width="12"/><line x1="22" y1="96" x2="124" y2="59" stroke="#E0A13C" stroke-width="3"/><line x1="22" y1="96" x2="121" y2="59" stroke="#E0A13C" stroke-width="3"/></g></svg>