<svg xmlns="http://www.w3.org/2000/svg" viewBox="-10 -14 260 216" role="img" aria-label="Box squat"><g stroke-linecap="round"><rect x="0" y="186" width="240" height="11" rx="5.5" fill="#CDE3D2"/><rect x="56" y="142" width="44" height="44" rx="4" fill="#E6DCD0"/><rect x="56" y="142" width="44" height="5" rx="3" fill="#D3C6B8"/><line x1="104" y1="52" x2="127.3" y2="70.9" stroke="#BFB0E4" stroke-width="13"/><line x1="127.3" y1="70.9" x2="151" y2="56" stroke="#BFB0E4" stroke-width="12"/><line x1="104" y1="101" x2="113" y2="142" stroke="#BFB0E4" stroke-width="14"/><line x1="113" y1="142" x2="104" y2="181" stroke="#BFB0E4" stroke-width="13"/><line x1="104" y1="181" x2="118.7" y2="183.9" stroke="#BFB0E4" stroke-width="10"/><line x1="104" y1="101" x2="104" y2="47" stroke="#5A4A8E" stroke-width="21"/><circle cx="104" cy="27" r="13" fill="#F4B593"/><line x1="104" y1="101" x2="115.5" y2="141.4" stroke="#5A4A8E" stroke-width="14"/><line x1="115.5" y1="141.4" x2="110" y2="181" stroke="#5A4A8E" stroke-width="13"/><line x1="110" y1="181" x2="124.7" y2="183.9" stroke="#5A4A8E" stroke-width="10"/><line x1="104" y1="52" x2="129" y2="68.6" stroke="#5A4A8E" stroke-width="13"/><line x1="129" y1="68.6" x2="154" y2="56" stroke="#5A4A8E" stroke-width="12"/></g></svg>